<?xml version="1.0" encoding="UTF-8" standalone="no"?><!DOCTYPE svg PUBLIC "-//W3C//DTD SVG 1.1//EN" "http://www.w3.org/Graphics/SVG/1.1/DTD/svg11.dtd"><svg width="100%" height="100%" viewBox="0 0 800 800" version="1.1" xmlns="http://www.w3.org/2000/svg" xmlns:xlink="http://www.w3.org/1999/xlink" xml:space="preserve" xmlns:serif="http://www.serif.com/" style="fill-rule:evenodd;clip-rule:evenodd;stroke-linejoin:round;stroke-miterlimit:1.41421;"><rect id="Logo" x="0" y="0" width="800" height="800" style="fill:none;"/><g><circle cx="400" cy="400" r="366.667" style="fill:#fff;"/><path d="M400,109.046l192.836,70.187l102.606,177.719l-35.634,202.094l-157.202,131.908l-205.212,0l-157.202,-131.908l-35.634,-202.094l102.606,-177.719l192.836,-70.187Z" style="fill:url(#_Linear1);"/><path d="M569.307,275.307c-7.965,0.497 -13.751,1.493 -17.36,2.986c-3.609,1.494 -6.036,4.356 -7.28,8.587c-1.245,4.231 -1.867,11.076 -1.867,20.533l0,185.174c0,9.457 0.684,16.302 2.053,20.533c1.369,4.231 3.796,7.093 7.28,8.587c3.485,1.493 9.209,2.489 17.174,2.986l0,7.467c-15.183,-0.747 -37.209,-1.12 -66.08,-1.12c-30.116,0 -52.267,0.373 -66.454,1.12l0,-7.467c8.96,-0.497 15.494,-1.493 19.6,-2.986c4.107,-1.494 6.907,-4.356 8.4,-8.587c1.494,-4.231 2.24,-11.076 2.24,-20.533l0,-190.774l-89.973,229.974l-5.973,0l-105.28,-239.68l0,166.88c0,18.417 0.746,31.671 2.24,39.76c1.493,8.089 4.791,14 9.893,17.733c5.102,3.733 13.627,6.471 25.573,8.213l0,7.467c-10.204,-0.747 -24.142,-1.12 -41.813,-1.12c-13.191,0 -23.52,0.373 -30.987,1.12l0,-7.467c7.716,-1.742 13.44,-4.417 17.174,-8.026c3.733,-3.609 6.222,-9.147 7.466,-16.614c1.245,-7.466 1.867,-18.666 1.867,-33.6l0,-159.04c0,-9.457 -0.684,-16.302 -2.053,-20.533c-1.369,-4.231 -3.796,-7.093 -7.28,-8.587c-3.485,-1.493 -9.209,-2.489 -17.174,-2.986l0,-7.467c7.467,0.747 17.796,1.12 30.987,1.12c29.867,0 55.627,-0.373 77.28,-1.12l70.56,158.667l61.227,-157.547l32.48,0c28.871,0 50.897,-0.373 66.08,-1.12l0,7.467Z" style="fill:#fff;fill-rule:nonzero;"/></g><defs><linearGradient id="_Linear1" x1="0" y1="0" x2="1" y2="0" gradientUnits="userSpaceOnUse" gradientTransform="matrix(600,0,0,600,100,409.046)"><stop offset="0" style="stop-color:#036ed9;stop-opacity:1"/><stop offset="0.17" style="stop-color:#0371d8;stop-opacity:1"/><stop offset="0.22" style="stop-color:#0479d6;stop-opacity:1"/><stop offset="0.25" style="stop-color:#0582d3;stop-opacity:1"/><stop offset="1" style="stop-color:#0ff0b3;stop-opacity:1"/></linearGradient></defs></svg>