<svg version="1" xmlns="http://www.w3.org/2000/svg" width="800" height="800" viewBox="0 0 600.000000 600.000000"><path d="M247.5 28.6c-26.9 15.6-85.8 49.7-130.9 75.6l-81.8 47.3.7 125.5c.4 69 1 136.7 1.4 150.4l.6 25L90 481.8C190.9 538.3 297.8 597.9 300.2 599c2.2 1 9.7-3.1 84.4-46.2 45-26.1 104.1-60.2 131.3-75.9l49.3-28.4-.7-121c-.4-66.6-1-134.2-1.4-150.4l-.6-29.4-48-26.9C387.8 49.7 299.8.8 298.2.5c-.9-.2-23.7 12.4-50.7 28.1zM128.3 228.7c.3 2.1 5.4 38.1 11.3 80 9.4 67 11 76.3 12.4 76.3 1.1 0 1.9-1 2.3-2.8.2-1.5 5.3-37.5 11.3-80l10.9-77.2H214v168h-18v-80.1c0-75.3-.1-80-1.7-79.7-1.5.3-3.2 10.6-13 79.3-6.2 43.5-11.2 79.3-11.3 79.7 0 1.3-36 1-36-.3 0-2-22-156.4-22.5-157.7-.2-.6-1.1-1.2-2-1.2-1.3 0-1.5 8.8-1.5 80v80H90V225h37.7l.6 3.7zm214.5 79.6c13.9 45.8 25.2 83.6 25.2 84 0 .4-4.6.7-10.2.7h-10.3l-6-20.8-6.1-20.7h-72.8l-6.1 20.7-6 20.8h-10.2c-5.7 0-10.3-.3-10.3-.8 0-.4 11.3-38.2 25.2-84l25.2-83.2h37.2l25.2 83.3zm81.8-45.8c17.6 34.9 19.1 37.5 21.4 37.3 2.1-.3 4.7-4.8 21.3-37.6l18.8-37.2h10.5c5.7 0 10.4.3 10.4.7 0 .3-4.2 8.8-9.4 18.7-5.1 10-14.6 28.6-21.1 41.4L464.8 309l21.1 41.5c11.6 22.9 21.1 41.8 21.1 42 0 .3-4.7.5-10.5.5H486l-18.7-37.5C450 321 448.3 318 446 318c-2.3 0-4.2 3.3-21.5 37.5L405.6 393h-10.3c-5.7 0-10.3-.3-10.3-.7 0-.3 9.2-18.8 20.5-41 11.3-22.1 20.5-41.2 20.5-42.4 0-1.1-9.2-20.2-20.5-42.3-11.3-22.2-20.5-40.6-20.5-41 0-.3 4.6-.6 10.3-.6h10.4l18.9 37.5z"/><path d="M283.1 281.7c-7.9 26.9-14.6 49.4-14.8 50-.4 1 6.1 1.3 30.7 1.3 25.8 0 31.1-.2 30.7-1.4-.3-.7-6.6-22.2-14.1-47.7-7.5-25.5-14.1-47.4-14.6-48.7-.5-1.2-1.5-2.2-2.3-2.2-.8 0-6.2 16.8-15.6 48.7z"/></svg>