<?xml version="1.0" encoding="UTF-8" standalone="yes"?><!DOCTYPE svg PUBLIC "-//W3C//DTD SVG 1.1//EN" "http://www.w3.org/Graphics/SVG/1.1/DTD/svg11.dtd"><svg width="100%" height="100%" viewBox="0 0 840 2634" version="1.1" xmlns="http://www.w3.org/2000/svg" xmlns:xlink="http://www.w3.org/1999/xlink" xml:space="preserve" xmlns:serif="http://www.serif.com/" style="fill-rule:evenodd;clip-rule:evenodd;stroke-linejoin:round;stroke-miterlimit:1.41421;"><rect id="Home" x="0" y="0" width="840" height="2633.42" style="fill:none;"/><clipPath id="_clip1"><rect x="0" y="0" width="840" height="2633.42"/></clipPath><g clip-path="url(#_clip1)"><g id="Experience"><rect x="-4.873" y="1757.11" width="847.069" height="466.354" style="fill:#fff;"/><text x="316.396px" y="1842.27px" style="font-family:'WorkSans-SemiBold', 'Work Sans';font-weight:600;font-size:36px;">E<tspan x="339.376px 360.032px 382.867px 403.995px 419.315px 429.552px 450.681px 473.152px 493.809px " y="1842.27px 1842.27px 1842.27px 1842.27px 1842.27px 1842.27px 1842.27px 1842.27px 1842.27px ">xperience</tspan></text><g id="Cards"><rect x="10.253" y="1914.07" width="251.095" height="225" style="fill:#f4e9df;"/><rect x="293.113" y="1914.07" width="251.095" height="225" style="fill:#f4e9df;"/><rect x="575.974" y="1914.07" width="251.095" height="225" style="fill:#f4e9df;"/></g></g><g id="Education"><rect x="-0.026" y="1288.55" width="842.222" height="469.639" style="fill:#fff;"/><text x="329.674px" y="1373.09px" style="font-family:'WorkSans-SemiBold', 'Work Sans';font-weight:600;font-size:36.254px;">E<tspan x="352.089px 374.793px 397.136px 417.674px 437.671px 453.156px 463.334px " y="1373.09px 1373.09px 1373.09px 1373.09px 1373.09px 1373.09px 1373.09px ">ducatio</tspan>n</text><g id="Cards1" serif:id="Cards"><rect x="15.013" y="1446.62" width="249.659" height="226.585" style="fill:#f4e9df;"/><rect x="296.255" y="1446.62" width="249.659" height="226.585" style="fill:#f4e9df;"/><rect x="577.497" y="1446.62" width="249.659" height="226.585" style="fill:#f4e9df;"/></g></g><g id="Projects"><rect x="0.421" y="800" width="840" height="491.45" style="fill:#fff;"/><text x="346.11px" y="885.165px" style="font-family:'WorkSans-SemiBold', 'Work Sans';font-weight:600;font-size:36px;">Pr<tspan x="384.198px " y="885.165px ">o</tspan>jects</text><g id="Cards2" serif:id="Cards"><rect x="15.421" y="956.961" width="249" height="225" style="fill:#f4e9df;"/><rect x="295.921" y="956.961" width="249" height="225" style="fill:#f4e9df;"/><rect x="576.421" y="956.961" width="249" height="225" style="fill:#f4e9df;"/></g></g><g id="Description"><rect x="0" y="495" width="840" height="305" style="fill:#000023;"/><g transform="matrix(1,0,0,1,14.6038,0)"><text x="34.964px" y="586.917px" style="font-family:'WorkSans-Bold', 'Work Sans';font-weight:700;font-size:48px;fill:#fff;">I&apos;m a<tspan x="148.58px " y="586.917px "> </tspan>de<tspan x="219.62px 246.02px " y="586.917px 586.917px ">ve</tspan>loper<tspan x="394.244px 413.828px " y="586.917px 586.917px ">/s</tspan>tuden<tspan x="577.748px " y="586.917px ">t</tspan></text><text x="34.964px" y="634.917px" style="font-family:'WorkSans-Bold', 'Work Sans';font-weight:700;font-size:48px;fill:#fff;">who builds <tspan x="308.948px 352.004px " y="634.917px 634.917px ">we</tspan>bsites, games,</text><text x="34.964px" y="682.917px" style="font-family:'WorkSans-Bold', 'Work Sans';font-weight:700;font-size:48px;fill:#fff;">and mor<tspan x="230.9px " y="682.917px ">e</tspan> and I&apos;m al<tspan x="503.252px 546.548px 572.9px 599.828px " y="682.917px 682.917px 682.917px 682.917px ">ways</tspan></text><text x="34.964px" y="730.917px" style="font-family:'WorkSans-Bold', 'Work Sans';font-weight:700;font-size:48px;fill:#fff;">looking <tspan x="222.548px 242.18px 271.076px 290.996px " y="730.917px 730.917px 730.917px 730.917px ">for </tspan>ne<tspan x="361.748px 404.324px 417.668px 439.124px " y="730.917px 730.917px 730.917px 730.917px ">w th</tspan>ings <tspan x="578.708px " y="730.917px ">t</tspan>o learn.</text></g></g><g id="Landing"><rect x="0.421" y="0" width="840" height="495" style="fill:url(#_Linear2);"/><g id="Text"><text x="313.688px" y="219.278px" style="font-family:'WorkSans-Bold', 'Work Sans';font-weight:700;font-size:27px;">H<tspan x="333.614px " y="219.278px ">e</tspan>llo <tspan x="390.476px 415.964px " y="219.278px 219.278px ">Wo</tspan>rld, I&apos;m</text><text x="233.344px" y="292.754px" style="font-family:'PlayfairDisplay-Black', 'Playfair Display';font-weight:900;font-size:64px;">M<tspan x="294.656px 328.64px 362.88px 377.152px 415.808px " y="292.754px 292.754px 292.754px 292.754px 292.754px ">ax Sh</tspan>al<tspan x="509.952px " y="292.754px ">o</tspan>m</text></g></g><g id="Button"><path d="M526.854,1223.99c0,-2.204 -1.79,-3.993 -3.993,-3.993l-205.722,0c-2.203,0 -3.993,1.789 -3.993,3.993l0,36.38c0,2.204 1.79,3.993 3.993,3.993l205.722,0c2.203,0 3.993,-1.789 3.993,-3.993l0,-36.38Z" style="fill:#000078;"/><text x="348.432px" y="1249.94px" style="font-family:'WorkSans-Bold', 'Work Sans';font-weight:700;font-size:24px;fill:#fff;">See mor<tspan x="445.896px " y="1249.94px ">e</tspan>  →</text></g><g id="Navbar"><g id="Nav"><rect x="0" y="0" width="840" height="50" style="fill:#fff;"/><g transform="matrix(1.45762,0,0,1.45762,73.467,32.225)"><text x="0px" y="0px" style="font-family:'WorkSans-Bold', 'Work Sans';font-weight:700;font-size:14.407px;">Home</text><text x="49.647px" y="0px" style="font-family:'WorkSans-SemiBold', 'Work Sans';font-weight:600;font-size:14.407px;"><tspan x="49.647px " y="0px ">A</tspan>bout  Contact</text></g></g><g><circle cx="32.904" cy="23.599" r="21.85" style="fill:#fff;"/><path d="M32.904,6.26l11.492,4.183l6.114,10.59l-2.123,12.044l-9.368,7.86l-12.229,0l-9.368,-7.86l-2.124,-12.044l6.115,-10.59l11.491,-4.183Z" style="fill:url(#_Linear3);"/><text x="22.572px" y="31.164px" style="font-family:'PlayfairDisplay-Black', 'Playfair Display';font-weight:900;font-size:21.37px;fill:#fff;">M</text></g></g><g id="Footer"><rect x="-6.757" y="2222.1" width="852.199" height="417.9" style="fill:url(#_Linear4);"/><g id="Cards3" serif:id="Cards"><rect x="29.143" y="2386.25" width="240.304" height="215.33" style="fill:#fff;"/><rect x="299.848" y="2386.25" width="240.304" height="215.33" style="fill:#fff;"/><rect x="570.552" y="2386.25" width="240.304" height="215.33" style="fill:#fff;"/></g><text x="325.12px" y="2313.99px" style="font-family:'WorkSans-Black', 'Work Sans';font-weight:900;font-size:64px;fill:#fff;">About</text></g></g><defs><linearGradient id="_Linear2" x1="0" y1="0" x2="1" y2="0" gradientUnits="userSpaceOnUse" gradientTransform="matrix(-1314.6,-660.033,660.033,-1314.6,828.468,451.058)"><stop offset="0" style="stop-color:#0ff0b3;stop-opacity:1"/><stop offset="0" style="stop-color:#0ff0b3;stop-opacity:1"/><stop offset="0.02" style="stop-color:#0ff0b3;stop-opacity:1"/><stop offset="0.02" style="stop-color:#0ff0b3;stop-opacity:1"/><stop offset="0.03" style="stop-color:#0ff0b3;stop-opacity:1"/><stop offset="0.03" style="stop-color:#0ff0b3;stop-opacity:1"/><stop offset="0.03" style="stop-color:#0ff0b3;stop-opacity:1"/><stop offset="0.03" style="stop-color:#0ff0b3;stop-opacity:1"/><stop offset="0.03" style="stop-color:#0ff0b3;stop-opacity:1"/><stop offset="0.03" style="stop-color:#0ff0b3;stop-opacity:1"/><stop offset="0.6" style="stop-color:#036ed9;stop-opacity:1"/><stop offset="1" style="stop-color:#036ed9;stop-opacity:1"/></linearGradient><linearGradient id="_Linear3" x1="0" y1="0" x2="1" y2="0" gradientUnits="userSpaceOnUse" gradientTransform="matrix(35.7551,0,0,35.7551,15.0267,24.1379)"><stop offset="0" style="stop-color:#036ed9;stop-opacity:1"/><stop offset="0.17" style="stop-color:#0371d8;stop-opacity:1"/><stop offset="0.22" style="stop-color:#0479d6;stop-opacity:1"/><stop offset="0.25" style="stop-color:#0582d3;stop-opacity:1"/><stop offset="1" style="stop-color:#0ff0b3;stop-opacity:1"/></linearGradient><linearGradient id="_Linear4" x1="0" y1="0" x2="1" y2="0" gradientUnits="userSpaceOnUse" gradientTransform="matrix(852.199,0,0,417.9,-6.75714,2431.05)"><stop offset="0" style="stop-color:#036ed9;stop-opacity:1"/><stop offset="0.17" style="stop-color:#0371d8;stop-opacity:1"/><stop offset="0.22" style="stop-color:#0479d6;stop-opacity:1"/><stop offset="0.25" style="stop-color:#0582d3;stop-opacity:1"/><stop offset="1" style="stop-color:#0ff0b3;stop-opacity:1"/></linearGradient></defs></svg>