<svg version="1" xmlns="http://www.w3.org/2000/svg" width="533.333" height="533.333" viewBox="0 0 400.000000 400.000000"><path d="M166.5 16c-31.4 8.8-64.5 18-73.7 20.6l-16.7 4.6-33 58.7C13.3 152.8 8 163.3 11.4 162.7c.6-.1 1 .5 1.1 1.3.1.8.6 1.4 1.2 1.3.7-.2 1 .6.8 1.7-.2 1.1.1 1.9.8 1.7.6-.1 1.1.5 1.2 1.3.1.8.7 1.4 1.4 1.2.7-.1 1 .2.7.7-.3.5.1 1.4.9 2.1.8.7 1.2 1.6.9 2.1-.3.5 0 .8.7.7.7-.2 1.3.4 1.4 1.2.1.8.6 1.4 1.2 1.3.7-.2 1 .6.8 1.7-.2 1.1.1 1.9.8 1.7.6-.1 1.1.5 1.2 1.3.1.8.6 1.4 1.2 1.3.7-.2 1 .6.8 1.7-.2 1.2 0 1.8.4 1.6.5-.3 1.7.4 2.7 1.7 1.9 2.1 1.9 2.1-.1.7-2-1.4-2-1.4-.1.7 1 1.3 2.2 2 2.7 1.7.4-.2.6.4.4 1.6-.2 1.1.1 1.9.8 1.7.6-.1 1.1.5 1.2 1.3.1.8.6 1.4 1.2 1.3.7-.2 1 .6.8 1.7-.2 1.1.1 1.9.8 1.7.6-.1 1.1.5 1.2 1.3.1.8.7 1.4 1.4 1.2.7-.1 1 .2.7.7-.3.5.1 1.4.9 2.1.8.7 1.2 1.6.9 2.1-.3.5 0 .8.7.7.7-.2 1.3.4 1.4 1.2.1.8.6 1.4 1.2 1.3.7-.2 1 .6.8 1.7-.2 1.1.1 1.9.8 1.7.6-.1 1.1.5 1.2 1.3.1.8.7 1.4 1.4 1.2.7-.1 1 .2.7.7-.3.5.1 1.4.9 2.1.8.7 1.2 1.6.9 2.1-.3.5 0 .8.7.7.7-.2 1.3.4 1.4 1.2.1.8.6 1.4 1.2 1.3.7-.2 1 .6.8 1.7-.2 1.1.1 1.9.8 1.7.6-.1 1.1.5 1.2 1.3.1.8.6 1.4 1.2 1.3.7-.2 1 .6.8 1.7-.2 1.2 0 1.8.4 1.6.5-.3 1.7.4 2.7 1.7 1.9 2.1 1.9 2.1-.1.7-2-1.4-2-1.4-.1.7 1 1.3 2.2 2 2.7 1.7.4-.2.6.4.4 1.6-.2 1.1.1 1.9.8 1.7.6-.1 1.1.5 1.2 1.3.1.8.6 1.4 1.2 1.3.7-.2 1 .6.8 1.7-.2 1.1.1 1.9.8 1.7.6-.1 1.1.5 1.2 1.3.1.8.7 1.4 1.4 1.2.7-.1 1 .2.7.7-.3.5.1 1.4.9 2.1.8.7 1.2 1.6.9 2.1-.3.5 0 .8.7.7.7-.2 1.3.4 1.4 1.2.1.8.6 1.4 1.2 1.3.7-.2 1 .6.8 1.7-.2 1.1.1 1.9.8 1.7.6-.1 1.1.5 1.2 1.3.1.8.7 1.4 1.4 1.2.7-.1 1 .2.7.7-.3.5.1 1.4.9 2.1.8.7 1.2 1.6.9 2.1-.3.5 0 .8.7.7.7-.2 1.3.4 1.4 1.2.1.8.6 1.4 1.2 1.3.7-.2 1 .6.8 1.7-.2 1.1.1 1.9.8 1.7.6-.1 1.1.5 1.2 1.3.1.8.6 1.4 1.2 1.3.7-.2 1 .6.8 1.7-.2 1.2 0 1.8.4 1.6.5-.3 1.7.4 2.7 1.7 1.9 2.1 1.9 2.1-.1.7-2-1.4-2-1.4-.1.7 1 1.3 2.2 2 2.7 1.7.4-.2.6.4.4 1.6-.2 1.1.1 1.9.8 1.7.6-.1 1.1.5 1.2 1.3.1.8.6 1.4 1.2 1.3.7-.2 1 .6.8 1.7-.2 1.1.1 1.9.8 1.7.6-.1 1.1.5 1.2 1.3.1.8.7 1.4 1.4 1.2.7-.1 1 .2.7.7-.3.5.1 1.4.9 2.1.8.7 1.2 1.6.9 2.1-.3.5 0 .8.7.7.7-.2 1.3.4 1.4 1.2.1.8.6 1.4 1.2 1.3.7-.2 1 .6.8 1.7-.2 1.1.1 1.9.8 1.7.6-.1 1.1.5 1.2 1.3.1.8.7 1.4 1.4 1.2.7-.1 1 .2.7.7-.3.5.1 1.4.9 2.1.8.7 1.2 1.6.9 2.1-.3.5 0 .8.7.7.7-.2 1.3.4 1.4 1.2.1.8.6 1.4 1.2 1.3.7-.2 1 .6.8 1.7-.2 1.1.1 1.9.8 1.7.6-.1 1.2.5 1.2 1.3s.6 1.4 1.2 1.3c.7-.2 1 .6.8 1.7-.2 1.2 0 1.8.4 1.6.5-.3 1.7.4 2.7 1.7 1.9 2.1 1.9 2.1-.1.7-2-1.4-2-1.4-.1.7 1 1.3 2.2 2 2.7 1.7.4-.2.6.4.4 1.6-.2 1.1.1 1.9.8 1.7.6-.1 1.2.5 1.2 1.3s.6 1.4 1.2 1.3c.7-.2 1 .6.8 1.7-.2 1.1.1 1.9.8 1.7.6-.1 1.2.5 1.2 1.3s.7 1.4 1.4 1.2c.7-.1 1 .2.7.7-.3.5.1 1.4.9 2.1.8.7 1.2 1.6.9 2.1-.3.5 0 .8.7.7.7-.2 1.4.4 1.4 1.2 0 .8.6 1.4 1.2 1.3.7-.2 1 .6.8 1.7-.2 1.1.1 1.9.8 1.7.6-.1 1.2.5 1.2 1.3s.7 1.4 1.4 1.2c.7-.1 1 .2.7.7-.3.5.1 1.4.9 2.1.8.7 1.2 1.6.9 2.1-.3.5 0 .8.7.7.7-.2 1.4.4 1.4 1.2 0 .8.6 1.4 1.2 1.3.7-.2 1 .6.8 1.7-.2 1.1.1 1.9.8 1.7.6-.1 1.2.5 1.2 1.3s.6 1.4 1.2 1.3c.7-.2 1 .6.8 1.7-.2 1.2 0 1.8.4 1.6.5-.3 1.7.4 2.7 1.7 1.9 2.1 1.9 2.1-.1.7-2-1.4-2-1.4-.1.7 1 1.3 2.2 2 2.7 1.7.4-.2.6.4.4 1.6-.2 1.1.1 1.9.8 1.7.6-.1 1.2.5 1.2 1.3s.6 1.4 1.2 1.3c.7-.2 1 .6.8 1.7-.2 1.1.1 1.9.8 1.7.7-.1 1.1.3 1 1-.1.6.3 1.5 1 2 .8.7 25.1-5.6 71.2-18.2 38.5-10.5 71.2-19.6 72.7-20.1 2.4-.8 8.6-11.1 40.8-67.8l38-66.9-16.6-60.1c-24.2-87.5-24.3-87.9-25.1-88.7C357.1 74.7 224.8 0 224.1.1c-.3 0-26.2 7.2-57.6 15.9zm7.3 162.7c13.6 30.9 24.9 56.2 25.2 56.2.3.1 6.7-14 14.2-31.2 7.6-17.1 18.8-42.6 24.9-56.5l11.1-25.2H279v167h-27v-56.7c0-36.5-.3-56.4-1-55.7-.5.5-10.1 21.6-21.3 46.9l-20.3 46h-20.9l-20.6-46.3c-11.3-25.4-20.9-46.5-21.2-46.9-.4-.3-.7 24.9-.7 56V289h-27V121.9l15.1.3 15 .3 24.7 56.2z"/></svg>