<svg version="1" xmlns="http://www.w3.org/2000/svg" width="533.333" height="533.333" viewBox="0 0 400.000000 400.000000"><path d="M182.8.5c-.1.1-3.1.6-6.5.9-3.5.4-6.8.8-7.5 1.1-.7.2-3.2.6-5.6.9-2.4.3-4.6.7-5 1-.4.2-2.4.7-4.4 1-9.6 1.5-33.2 10.4-47.3 17.9C68.3 43.5 38.2 75 19.3 114.7c-4.5 9.4-11.6 28.3-12.8 34.2-.2.9-1 4.7-1.9 8.6-1.5 7.3-2.3 11.9-3.6 22-1.3 9.5-.3 41.9 1.5 52 .9 4.9 1.9 10.3 2.2 12 .9 5.5 5.4 19.8 8.4 27.4 1.7 4.2 3.6 8.9 4.3 10.6 1.9 5 11.5 22.4 15.9 28.9 21 31 47.4 54 79.9 69.6 11.1 5.3 29.5 12.3 35.1 13.4 1.2.2 4.5 1 7.2 1.6 14.5 3.4 25.1 4.4 44 4.5 17.5 0 24.8-.6 37-2.9 4.4-.9 9.1-1.8 10.5-2.1 9.9-1.9 38.4-12.7 44.2-16.7 1.4-1 2.9-1.8 3.3-1.8.4 0 4.4-2.2 8.9-4.9 25.1-15.2 46.5-35.7 62.8-60.1 15.8-23.8 27.3-53 31.3-80 2-12.7 2.3-18 2-34.5-.5-32.1-6.8-58.1-21.1-86.6-5-10-16.6-28.4-21.6-34-1.3-1.5-3.2-3.8-4.3-5.2-10.2-12.8-29.2-29.3-46.5-40.3-13.2-8.4-43.3-21.6-54.1-23.8-1.3-.3-6.7-1.4-11.9-2.5s-11.7-2.3-14.5-2.6c-5.2-.7-42.1-1.6-42.7-1z"/></svg>