<svg version="1" xmlns="http://www.w3.org/2000/svg" width="533.333" height="533.333" viewBox="0 0 400.000000 400.000000"><path d="M148.7 20.4c-40 11.2-72.9 20.5-73.1 20.7C74.8 42.2.9 173 .4 174.3c-.8 2.2 39.5 147.8 41.5 149.8 1.8 1.9 130.5 75 133 75.5 1.4.4 148.7-39.7 149.5-40.7 1.3-1.7 74.2-130.9 74.9-132.9.7-2-3.4-17.9-19.6-76.3-11.2-40.5-20.6-73.9-20.8-74.1C355.7 73 225.9.5 224.1.4c-1.4-.1-35.4 8.9-75.4 20zm19.5 153.8c16.3 37 30.2 67.3 30.9 67.3.6 0 14.5-30.3 30.8-67.3l29.6-67.2H295v199h-32v-68.1c0-47.7-.3-68-1.1-67.7-.6.2-12.2 25.5-25.9 56.3l-24.9 56h-24.4l-25-56.3c-13.8-30.9-25.5-56.1-26.1-55.9-.8.3-1 20.3-.7 68l.4 67.7H103V107h35.6l29.6 67.2z"/></svg>