<svg version="1" xmlns="http://www.w3.org/2000/svg" width="800" height="800" viewBox="0 0 600.000000 600.000000"><path d="M226.2 108.4l-71.3 26.1-38.4 66.6-38.4 66.6 13.4 75.8c7.3 41.7 13.7 76.1 14.2 76.5.4.5 26.9 22.7 58.8 49.4l57.9 48.6h155.1l55.6-46.8c30.6-25.7 57-47.9 58.7-49.4l3.1-2.6 13.1-74c7.1-40.7 13-75.1 13-76.3 0-1.2-17.2-32-38.1-68.4l-38.2-66.2-71.7-26.1c-39.5-14.4-72.6-26.2-73.6-26.1-1.1.1-34 11.9-73.2 26.3zm55.2 153.9c14 31.3 25.6 56.5 25.9 56 .2-.4 10-25.6 21.7-55.8 11.7-30.3 21.5-55.3 21.9-55.6.3-.4 16.5-.9 35.9-1.2l35.2-.6v2.4c0 2.1-.6 2.5-4.7 3.1-6.6.9-10.8 3-12.4 6.2-1.2 2.2-1.5 16.3-1.7 78.7-.2 41.8 0 78.4.3 81.3.9 7.7 4.1 10.9 12.3 12.3 5.3 1 6.2 1.4 6.2 3.3v2.1h-95v-2.2c0-1.8.7-2.3 4.8-2.8 7.1-.9 11.3-2.7 13.6-5.8 2.1-2.8 2.1-3.3 2.3-78 .1-41.4 0-74.8-.3-74.2-.2.5-14.7 37.4-32.2 82-26.5 67.6-32.1 81-33.8 81.3-1.8.3-6.5-10-39.4-85-20.5-46.9-37.7-85.7-38.2-86.2-1.2-1.5-1 131.3.2 141.4 1.2 9.6 3.9 16.1 7.9 18.9 2.5 1.8 9.2 4.2 15.4 5.5 2 .5 2.7 1.2 2.7 2.9v2.2h-52v-2.2c0-1.7.9-2.5 3.9-3.4 6.1-1.8 10.7-6.2 12.8-12.2 1.7-4.9 1.8-10.2 1.8-80.7 0-60.9-.3-76.1-1.3-78.7-1.6-3.6-5.5-5.8-12.4-6.8-4-.6-4.8-1.1-4.8-2.9v-2.1h78.1l25.3 56.8z"/></svg>